<svg version="1.1" viewBox="0.0 0.0 1024.0 1024.0" fill="none" stroke="none" stroke-linecap="square" stroke-miterlimit="10" xmlns:xlink="http://www.w3.org/1999/xlink" xmlns="http://www.w3.org/2000/svg"><clipPath id="p.0"><path d="m0 0l1024.0 0l0 1024.0l-1024.0 0l0 -1024.0z" clip-rule="nonzero"/></clipPath><g clip-path="url(#p.0)"><path fill="#b7b7b7" d="m0 0l1024.0 0l0 1024.0l-1024.0 0z" fill-rule="evenodd"/><path fill="#858585" d="m277.53806 329.80063l0 0c-4.81073 -4.81073 -4.81073 -12.610474 0 -17.421204l34.84137 -34.84137l0 0c2.3101807 -2.3102112 5.4434814 -3.6080627 8.710602 -3.6080627c3.2670898 0 6.4003906 1.2978516 8.710602 3.6080627l105.39337 105.39337c4.81073 4.81073 4.81073 12.610474 0 17.421204l-34.84137 34.84137c-4.81073 4.81073 -12.610474 4.81073 -17.421204 0z" fill-rule="evenodd"/><path fill="#666666" d="m-311.73938 87.87506l11.504639 -11.504646l624.3976 624.3976l-11.504639 11.504639z" fill-rule="evenodd"/><path fill="#666666" d="m76.370415 -300.23474l11.504646 -11.504639l624.3976 624.3976l-11.504639 11.504639z" fill-rule="evenodd"/><path fill="#858585" d="m-34.66074 17.60183l0 0c-4.810734 -4.810733 -4.810734 -12.610472 0 -17.421206l34.841366 -34.841366l0 0c2.3101954 -2.310196 5.443493 -3.6080513 8.710602 -3.6080513c3.2671099 0 6.400407 1.2978554 8.710603 3.6080513l105.39337 105.39337c4.8107376 4.81073 4.8107376 12.610474 0 17.421204l-34.841362 34.841362c-4.81073 4.8107376 -12.610474 4.8107376 -17.421204 0z" fill-rule="evenodd"/><path fill="#858585" d="m901.0048 953.2674l0 0c-4.81073 -4.810791 -4.81073 -12.610474 0 -17.421265l34.84131 -34.84131l0 0c2.3102417 -2.3102417 5.4435425 -3.6080933 8.710632 -3.6080933c3.2670898 0 6.4003906 1.2978516 8.710632 3.6080933l105.39337 105.39337c4.810669 4.81073 4.810669 12.610474 0 17.421204l-34.84137 34.84137c-4.81073 4.810669 -12.610474 4.810669 -17.421204 0z" fill-rule="evenodd"/><path fill="#666666" d="m311.72736 711.3418l11.504639 -11.504639l624.3976 624.3976l-11.504639 11.504639z" fill-rule="evenodd"/><path fill="#666666" d="m699.83716 323.232l11.504639 -11.504639l624.3976 624.3976l-11.504639 11.504639z" fill-rule="evenodd"/><path fill="#858585" d="m588.806 641.0686l0 0c-4.81073 -4.810791 -4.81073 -12.610474 0 -17.421265l34.84131 -34.84131l0 0c2.3102417 -2.3102417 5.4435425 -3.6080933 8.710632 -3.6080933c3.2670898 0 6.4003906 1.2978516 8.710632 3.6080933l105.39337 105.39337c4.81073 4.81073 4.81073 12.610474 0 17.421204l-34.84137 34.84137c-4.81073 4.81073 -12.610474 4.81073 -17.421204 0z" fill-rule="evenodd"/><path fill="#346dc9" d="m1626.587 524.5444c-9.369751 8.506531 -23.246582 43.813477 -22.305786 55.177246c0.9406738 11.363831 18.580444 21.512085 27.950073 13.005493c9.369751 -8.506531 29.208862 -52.68103 28.268066 -64.04486c-0.9406738 -11.36377 -24.542603 -12.64447 -33.912354 -4.1378784z" fill-rule="evenodd"/><path fill="#346dc9" d="m1897.5187 254.22021c8.296509 -9.5568695 43.287598 -24.215698 54.670044 -23.527786c11.382324 0.6878967 21.920654 18.098358 13.6241455 27.655228c-8.296509 9.556854 -52.020874 30.37381 -63.4032 29.685913c-11.382324 -0.6878967 -13.1875 -24.2565 -4.890991 -33.813354z" fill-rule="evenodd"/><path fill="#3c78d8" d="m1746.9172 651.4835c-82.54846 -81.20245 -246.10046 -203.28387 -244.27869 -286.5092c1.8217773 -83.22531 136.34729 -252.35126 255.20935 -212.84264c118.86206 39.508636 417.94946 333.21814 457.9629 449.89435c40.01367 116.67627 -139.73315 241.92029 -217.88196 250.16321c-78.148926 8.242859 -168.46326 -119.503235 -251.0116 -200.70575z" fill-rule="evenodd"/><path fill="#3c74cf" d="m1750.843 600.6715c14.36499 -54.335815 170.08911 -214.2219 224.84106 -229.83554c54.751953 -15.613647 118.03589 81.81787 103.6709 136.15363c-14.365234 54.335785 -135.10913 174.2474 -189.86108 189.86105c-54.751953 15.613647 -153.01587 -41.843384 -138.65088 -96.17914z" fill-rule="evenodd"/><path fill="#1155cc" d="m1542.759 373.46802c12.0164795 18.400757 67.22217 84.11801 85.622925 101.39209c18.400757 17.274048 36.798096 20.652985 24.781494 2.2522278c-12.0164795 -18.400726 -78.47998 -95.38266 -96.88074 -112.65674c-18.400757 -17.274048 -25.540283 -9.388336 -13.523682 9.012421z" fill-rule="evenodd"/><path fill="#1155cc" d="m1737.0215 179.20552c18.400757 12.016541 84.11804 67.22218 101.39209 85.62294c17.274048 18.400757 20.653076 36.798096 2.2523193 24.781555c-18.400757 -12.016541 -95.38269 -78.48004 -112.65674 -96.88078c-17.274048 -18.400742 -9.388428 -25.540253 9.012329 -13.523712z" fill-rule="evenodd"/><path fill="#ff9900" fill-opacity="0.2975" d="m1505.3398 387.87042c-3.3795166 -17.273468 -1.1260986 -40.555786 3.380005 -57.454468c4.5062256 -16.898682 21.21643 -50.13327 23.657227 -43.93759c2.440796 6.195648 -8.449097 56.515198 -9.012451 81.1116c-0.5633545 24.596436 8.636475 63.086823 5.632324 66.46689c-3.0041504 3.3800964 -20.277588 -28.912933 -23.657104 -46.18643z" fill-rule="evenodd"/><path fill="#ff9900" fill-opacity="0.2975" d="m1745.1414 148.06888c-17.273438 -3.3795013 -40.555786 -1.1261139 -57.454468 3.3800812c-16.898682 4.506195 -50.1333 21.21634 -43.937622 23.657135c6.1956787 2.4407806 56.51526 -8.449066 81.111694 -9.012405c24.596436 -0.5633545 63.086792 8.636459 66.4668 5.632324c3.380127 -3.0041351 -28.912842 -20.277618 -46.1864 -23.657135z" fill-rule="evenodd"/><path fill="#434343" d="m1675.4473 521.9308c2.253296 -32.670685 45.627075 -85.43271 79.98718 -122.797c34.360107 -37.364258 92.56482 -95.19299 126.173584 -101.38867c33.608887 -6.1956787 80.924194 31.732513 75.47937 64.21463c-5.4449463 32.482147 -72.28662 91.8118 -108.148926 130.67816c-35.862183 38.866302 -78.10913 97.637726 -107.024414 102.51993c-28.915161 4.882141 -68.720215 -40.556396 -66.4668 -73.22705z" fill-rule="evenodd"/><path fill="#1155cc" d="m1761.4875 611.48883c12.0164795 18.400757 67.22217 84.11804 85.622925 101.39209c18.400757 17.274048 36.798096 20.653015 24.781494 2.2522583c-12.0164795 -18.400757 -78.47998 -95.38269 -96.88074 -112.65674c-18.400757 -17.274048 -25.540283 -9.388367 -13.523682 9.01239z" fill-rule="evenodd"/><path fill="#1155cc" d="m1985.111 387.86533c18.400757 12.01651 84.11804 67.22217 101.39221 85.622925c17.273926 18.400757 20.652832 36.798096 2.2521973 24.781555c-18.400879 -12.016541 -95.38269 -78.48004 -112.65674 -96.88077c-17.274048 -18.400757 -9.388428 -25.540253 9.012329 -13.523712z" fill-rule="evenodd"/><path fill="#434343" d="m1942.4452 786.6739c13.331787 -21.96814 85.61719 -70.972595 119.41345 -105.895996c33.796387 -34.9234 63.461426 -92.754395 83.36426 -103.64435c19.903076 -10.889954 44.32495 11.480591 36.05298 38.304688c-8.2717285 26.824097 -52.44922 89.78174 -85.68384 122.63989c-33.23462 32.858093 -88.19946 66.409485 -113.724 74.50879c-25.524414 8.099304 -52.75464 -3.9448242 -39.42285 -25.913025z" fill-rule="evenodd"/><path fill="#f3f3f3" fill-opacity="0.6203" d="m1617.4619 341.8346c-1.8739014 -15.197449 -2.081665 -69.116394 0 -79.94147c2.081665 -10.825104 10.615967 -0.20654297 12.489868 14.990906c1.8739014 15.197449 0.83496094 65.36865 -1.2467041 76.193756c-2.081665 10.825073 -9.369385 3.9542542 -11.243164 -11.243195z" fill-rule="evenodd"/><path fill="#f3f3f3" fill-opacity="0.6203" d="m1650.109 309.1874c-1.8737793 -15.197449 -2.081543 -69.11638 0 -79.94147c2.081665 -10.825104 10.616089 -0.20652771 12.48999 14.990906c1.8737793 15.197449 0.83496094 65.36865 -1.2467041 76.193756c-2.081665 10.825104 -9.369385 3.9542542 -11.243286 -11.243195z" fill-rule="evenodd"/><g filter="url(#shadowFilter-p.1)"><use xlink:href="#p.1" transform="matrix(1.0 0.0 0.0 1.0 -0.7312160104986889 -5.955276902887103)"/></g><defs><filter id="shadowFilter-p.1" filterUnits="userSpaceOnUse"><feGaussianBlur in="SourceAlpha" stdDeviation="16.0" result="blur"/><feComponentTransfer in="blur" color-interpolation-filters="sRGB"><feFuncR type="linear" slope="0" intercept="0.0"/><feFuncG type="linear" slope="0" intercept="0.0"/><feFuncB type="linear" slope="0" intercept="0.0"/><feFuncA type="linear" slope="0.5" intercept="0"/></feComponentTransfer></filter></defs><g id="p.1"><defs><linearGradient id="p.2" gradientUnits="userSpaceOnUse" gradientTransform="matrix(14.51642318190452 0.0 0.0 -14.51642318190452 0.0 0.0)" spreadMethod="pad" x1="5.510999438189717" y1="-65.02977076975515" x2="5.510946820507766" y2="-50.51334758794598"><stop offset="0.0" stop-color="#e69138"/><stop offset="1.0" stop-color="#b45f06"/></linearGradient></defs><path fill="url(#p.2)" d="m80.0 908.87726l0 0c0 19.397156 15.724503 35.121643 35.121666 35.121643l140.48245 0l0 0c9.314865 0 18.248184 -3.7002563 24.834763 -10.286865c6.586609 -6.586609 10.286896 -15.519897 10.286896 -24.834778l0 -140.48242c0 -19.397156 -15.724487 -35.121704 -35.12166 -35.121704l-140.48245 0c-19.397163 0 -35.121666 15.724548 -35.121666 35.121704z" fill-rule="evenodd"/></g><defs><linearGradient id="p.3" gradientUnits="userSpaceOnUse" gradientTransform="matrix(13.429408004263951 0.0 0.0 13.429408004263951 0.0 0.0)" spreadMethod="pad" x1="7.087685430747135" y1="55.386640503506975" x2="7.087637333663919" y2="68.8160485076848"><stop offset="0.0" stop-color="#cccccc"/><stop offset="1.0" stop-color="#f3f3f3"/></linearGradient></defs><path fill="url(#p.3)" d="m95.18342 833.9846l0 0c0 -49.80182 40.372368 -90.174194 90.1742 -90.174194l0 0c23.91568 0 46.851837 9.500488 63.762787 26.411438c16.910934 16.91095 26.411423 39.847107 26.411423 63.762756l0 0c0 49.80188 -40.372375 90.174194 -90.17421 90.174194l0 0c-49.801834 0 -90.1742 -40.372314 -90.1742 -90.174194z" fill-rule="evenodd"/><defs><linearGradient id="p.4" gradientUnits="userSpaceOnUse" gradientTransform="matrix(11.807150064762617 0.0 0.0 -11.807150064762617 0.0 0.0)" spreadMethod="pad" x1="9.797370275205532" y1="-75.60558736457281" x2="9.797327726528996" y2="-63.798437299886864"><stop offset="0.0" stop-color="#e69138"/><stop offset="1.0" stop-color="#b45f06"/></linearGradient></defs><path fill="url(#p.4)" d="m115.67902 822.9818l0 0c0 38.49652 31.207603 69.70416 69.704124 69.70416l0 0c18.48668 0 36.2162 -7.343811 49.288254 -20.415894c13.072067 -13.0720215 20.415878 -30.801575 20.415878 -49.28827l0 0c0 -38.49652 -31.207611 -69.7041 -69.70413 -69.7041l0 0c-38.49652 0 -69.704124 31.20758 -69.704124 69.7041z" fill-rule="evenodd"/><defs><linearGradient id="p.5" gradientUnits="userSpaceOnUse" gradientTransform="matrix(9.919314419709053 0.0 0.0 9.919314419709053 0.0 0.0)" spreadMethod="pad" x1="13.728228251361509" y1="76.66700093864101" x2="13.728193108888542" y2="86.5863153582878"><stop offset="0.0" stop-color="#cccccc"/><stop offset="1.0" stop-color="#f3f3f3"/></linearGradient></defs><path fill="url(#p.5)" d="m136.17462 809.68066l0 0c0 -27.17035 22.02591 -49.196228 49.196243 -49.196228l0 0c13.047653 0 25.560913 5.1831055 34.786987 14.409241c9.2260895 9.226074 14.409256 21.739319 14.409256 34.786987l0 0c0 27.170288 -22.02591 49.196228 -49.196243 49.196228l0 0c-27.170334 0 -49.196243 -22.02594 -49.196243 -49.196228z" fill-rule="evenodd"/><defs><linearGradient id="p.6" gradientUnits="userSpaceOnUse" gradientTransform="matrix(7.576420589598856 0.0 0.0 7.576420589598856 0.0 0.0)" spreadMethod="pad" x1="20.678659859843254" y1="100.94048283741465" x2="20.678632795282752" y2="108.51690342696516"><stop offset="0.0" stop-color="#e69138"/><stop offset="1.0" stop-color="#b45f06"/></linearGradient></defs><path fill="url(#p.6)" d="m156.67023 793.46875l0 0c0 -15.851135 12.8498535 -28.700989 28.700958 -28.700989l0 0c7.611969 0 14.91217 3.0238647 20.294632 8.406311c5.382477 5.3825073 8.406326 12.682678 8.406326 20.294678l0 0c0 15.851074 -12.849869 28.700928 -28.700958 28.700928l0 0c-15.851105 0 -28.700958 -12.8498535 -28.700958 -28.700928z" fill-rule="evenodd"/><g filter="url(#shadowFilter-p.7)"><use xlink:href="#p.7" transform="matrix(1.0 0.0 0.0 1.0 -0.731216010498708 -5.9552769028871415)"/></g><defs><filter id="shadowFilter-p.7" filterUnits="userSpaceOnUse"><feGaussianBlur in="SourceAlpha" stdDeviation="16.0" result="blur"/><feComponentTransfer in="blur" color-interpolation-filters="sRGB"><feFuncR type="linear" slope="0" intercept="0.0"/><feFuncG type="linear" slope="0" intercept="0.0"/><feFuncB type="linear" slope="0" intercept="0.0"/><feFuncA type="linear" slope="0.5" intercept="0"/></feComponentTransfer></filter></defs><g id="p.7"><defs><linearGradient id="p.8" gradientUnits="userSpaceOnUse" gradientTransform="matrix(14.51642406474836 0.0 0.0 -14.51642406474836 0.0 0.0)" spreadMethod="pad" x1="50.51333321543994" y1="-20.027435527544558" x2="50.51328236345511" y2="-5.511011462885267"><stop offset="0.0" stop-color="#e69138"/><stop offset="1.0" stop-color="#b45f06"/></linearGradient></defs><path fill="url(#p.8)" d="m733.27295 255.6043l0 0c0 19.397171 15.724548 35.12166 35.121704 35.12166l140.48242 0l0 0c9.31488 0 18.248169 -3.7002869 24.834778 -10.286896c6.586609 -6.5865784 10.286865 -15.519897 10.286865 -24.834763l0 -140.48245c0 -19.397163 -15.724487 -35.121666 -35.121643 -35.121666l-140.48242 0c-19.397156 0 -35.121704 15.724503 -35.121704 35.121666z" fill-rule="evenodd"/></g><defs><linearGradient id="p.9" gradientUnits="userSpaceOnUse" gradientTransform="matrix(13.429409912879606 0.0 0.0 13.429409912879606 0.0 0.0)" spreadMethod="pad" x1="55.73263231108776" y1="6.7416824538482985" x2="55.73258345056573" y2="20.17109236663902"><stop offset="0.0" stop-color="#cccccc"/><stop offset="1.0" stop-color="#f3f3f3"/></linearGradient></defs><path fill="url(#p.9)" d="m748.45636 180.71167l0 0c0 -49.801834 40.372375 -90.1742 90.174255 -90.1742l0 0c23.91565 0 46.851807 9.500473 63.762756 26.411415c16.91095 16.91095 26.411438 39.847107 26.411438 63.762787l0 0c0 49.801834 -40.372375 90.174194 -90.174194 90.174194l0 0c-49.80188 0 -90.174255 -40.37236 -90.174255 -90.174194z" fill-rule="evenodd"/><defs><linearGradient id="p.10" gradientUnits="userSpaceOnUse" gradientTransform="matrix(11.807148328093547 0.0 0.0 -11.807148328093547 0.0 0.0)" spreadMethod="pad" x1="65.12597253368249" y1="-20.276995062674505" x2="65.12592390661644" y2="-8.46984673468109"><stop offset="0.0" stop-color="#e69138"/><stop offset="1.0" stop-color="#b45f06"/></linearGradient></defs><path fill="url(#p.10)" d="m768.95197 169.70888l0 0c0 38.49652 31.207642 69.70412 69.70416 69.70412l0 0c18.486694 0 36.216187 -7.343811 49.28827 -20.415863c13.0720215 -13.072067 20.415833 -30.801575 20.415833 -49.288254l0 0c0 -38.496536 -31.20758 -69.70413 -69.7041 -69.70413l0 0c-38.49652 0 -69.70416 31.207596 -69.70416 69.70413z" fill-rule="evenodd"/><defs><linearGradient id="p.11" gradientUnits="userSpaceOnUse" gradientTransform="matrix(9.919315970108597 0.0 0.0 9.919315970108597 0.0 0.0)" spreadMethod="pad" x1="79.58689802418243" y1="10.80831496974648" x2="79.58686494891893" y2="20.727630939799933"><stop offset="0.0" stop-color="#cccccc"/><stop offset="1.0" stop-color="#f3f3f3"/></linearGradient></defs><path fill="url(#p.11)" d="m789.4476 156.40768l0 0c0 -27.170334 22.02594 -49.196243 49.196228 -49.196243l0 0c13.047668 0 25.560913 5.183159 34.78705 14.409241c9.226074 9.2260895 14.409241 21.73935 14.409241 34.787003l0 0c0 27.170334 -22.02594 49.196228 -49.19629 49.196228l0 0c-27.170288 0 -49.196228 -22.025894 -49.196228 -49.196228z" fill-rule="evenodd"/><defs><linearGradient id="p.12" gradientUnits="userSpaceOnUse" gradientTransform="matrix(7.576419236362009 0.0 0.0 7.576419236362009 0.0 0.0)" spreadMethod="pad" x1="106.90316021077678" y1="14.716001502622047" x2="106.90313855912451" y2="22.29242073895312"><stop offset="0.0" stop-color="#e69138"/><stop offset="1.0" stop-color="#b45f06"/></linearGradient></defs><path fill="url(#p.12)" d="m809.9432 140.19577l0 0c0 -15.851105 12.8498535 -28.700966 28.700989 -28.700966l0 0c7.6119385 0 14.91217 3.0238419 20.294617 8.406319c5.3825073 5.382469 8.406311 12.682678 8.406311 20.294647l0 0c0 15.8510895 -12.8498535 28.700943 -28.700928 28.700943l0 0c-15.851135 0 -28.700989 -12.8498535 -28.700989 -28.700943z" fill-rule="evenodd"/><g filter="url(#shadowFilter-p.13)"><use xlink:href="#p.13" transform="matrix(1.0 0.0 0.0 1.0 -0.7312160104986698 -5.955276902887103)"/></g><defs><filter id="shadowFilter-p.13" filterUnits="userSpaceOnUse"><feGaussianBlur in="SourceAlpha" stdDeviation="16.0" result="blur"/><feComponentTransfer in="blur" color-interpolation-filters="sRGB"><feFuncR type="linear" slope="0" intercept="0.0"/><feFuncG type="linear" slope="0" intercept="0.0"/><feFuncB type="linear" slope="0" intercept="0.0"/><feFuncA type="linear" slope="0.5" intercept="0"/></feComponentTransfer></filter></defs><g id="p.13"><defs><linearGradient id="p.14" gradientUnits="userSpaceOnUse" gradientTransform="matrix(14.266713223058195 3.823648919644977 3.823648919644977 -14.266713223058195 0.0 0.0)" spreadMethod="pad" x1="19.24039146699349" y1="-17.599111610814692" x2="19.240340100512253" y2="-3.332398387848966"><stop offset="0.0" stop-color="#e69138"/><stop offset="1.0" stop-color="#b45f06"/></linearGradient></defs><path fill="url(#p.14)" d="m216.29648 290.7255l0 0c-5.021347 18.735565 6.0962067 37.994354 24.831772 43.015717l135.69087 36.36676l0 0c8.997162 2.4113464 18.58368 1.1498108 26.650696 -3.5070496c8.067017 -4.6568604 13.953674 -12.327576 16.36502 -21.324738l36.36676 -135.69087c5.0213623 -18.735565 -6.0961914 -37.994354 -24.831757 -43.0157l-135.69089 -36.366776c-18.735565 -5.021347 -37.994354 6.0962067 -43.0157 24.831772z" fill-rule="evenodd"/></g><defs><linearGradient id="p.15" gradientUnits="userSpaceOnUse" gradientTransform="matrix(13.19839809917479 3.537327753335239 -3.537327753335239 13.19839809917479 0.0 0.0)" spreadMethod="pad" x1="21.908922214329447" y1="4.373229585048909" x2="21.908875694030833" y2="17.571627684141717"><stop offset="0.0" stop-color="#cccccc"/><stop offset="1.0" stop-color="#f3f3f3"/></linearGradient></defs><path fill="url(#p.15)" d="m250.34952 222.31784l0 0c12.892242 -48.103195 62.338806 -76.64732 110.441986 -63.755096l0 0c23.099976 6.1910706 42.794434 21.304993 54.750824 42.016876c11.956421 20.711899 15.195343 45.325134 9.004272 68.42511l0 0c-12.892212 48.10321 -62.338776 76.64734 -110.441986 63.755096l0 0c-48.10318 -12.892242 -76.64732 -62.338806 -63.755096 -110.441986z" fill-rule="evenodd"/><defs><linearGradient id="p.16" gradientUnits="userSpaceOnUse" gradientTransform="matrix(11.604043374134841 3.1100217141957893 3.1100217141957893 -11.604043374134841 0.0 0.0)" spreadMethod="pad" x1="26.625135866486897" y1="-17.366226360802155" x2="26.62509319549985" y2="-5.762182986745771"><stop offset="0.0" stop-color="#e69138"/><stop offset="1.0" stop-color="#b45f06"/></linearGradient></defs><path fill="url(#p.16)" d="m272.99435 216.99603l0 0c-9.965607 37.183487 12.098846 75.405396 49.28232 85.371l0 0c17.85614 4.785675 36.88205 2.2819824 52.892212 -6.9602356c16.010162 -9.242218 27.693146 -24.465942 32.47879 -42.322083l0 0c9.965637 -37.183487 -12.098816 -75.40538 -49.28232 -85.371l0 0c-37.18347 -9.965622 -75.405365 12.098831 -85.371 49.28232z" fill-rule="evenodd"/><defs><linearGradient id="p.17" gradientUnits="userSpaceOnUse" gradientTransform="matrix(9.748684416403712 2.6127634344969577 -2.6127634344969577 9.748684416403712 0.0 0.0)" spreadMethod="pad" x1="33.72309039022022" y1="7.5728338791713075" x2="33.72305381992072" y2="17.321518295506426"><stop offset="0.0" stop-color="#cccccc"/><stop offset="1.0" stop-color="#f3f3f3"/></linearGradient></defs><path fill="url(#p.17)" d="m296.2342 209.45422l0 0c7.0336 -26.243607 34.0101 -41.81639 60.253723 -34.78279l0 0c12.6026 3.3776398 23.34729 11.623337 29.87033 22.923096c6.523041 11.299759 8.2901 24.727982 4.912445 37.330612l0 0c-7.0336 26.243622 -34.0101 41.816406 -60.253693 34.782806l0 0c-26.243622 -7.0336 -41.816406 -34.010117 -34.782806 -60.253723z" fill-rule="evenodd"/><defs><linearGradient id="p.18" gradientUnits="userSpaceOnUse" gradientTransform="matrix(7.446089218536047 1.9956405200391782 -1.9956405200391782 7.446089218536047 0.0 0.0)" spreadMethod="pad" x1="46.810116002635425" y1="10.470272355131213" x2="46.81008940311614" y2="17.91636157361975"><stop offset="0.0" stop-color="#e69138"/><stop offset="1.0" stop-color="#b45f06"/></linearGradient></defs><path fill="url(#p.18)" d="m320.2275 199.10097l0 0c4.1033936 -15.310455 19.8414 -24.395569 35.151855 -20.29219l0 0c7.352356 1.97052 13.620758 6.781021 17.4263 13.373276c3.8055115 6.5922546 4.836426 14.426239 2.8659058 21.77858l0 0c-4.1033936 15.310455 -19.8414 24.395584 -35.151855 20.29219l0 0c-15.310455 -4.1033783 -24.3956 -19.8414 -20.292206 -35.151855z" fill-rule="evenodd"/><path fill="#3c78d8" d="m526.9226 809.11273c-83.89609 -82.5282 -250.11838 -206.60278 -248.26685 -291.18683c1.8515015 -84.584076 138.5734 -256.47122 259.37604 -216.31757c120.80261 40.153656 424.773 338.65833 465.43976 457.23944c40.666748 118.58118 -142.01447 245.86993 -221.43927 254.24744c-79.424805 8.377441 -171.21362 -121.454285 -255.10968 -203.98248z" fill-rule="evenodd"/><path fill="#6fa8dc" d="m493.14587 759.3245c3.4255981 -28.00824 32.64392 -80.19647 61.660645 -114.85492c29.016785 -34.658447 83.82623 -75.36371 112.43982 -93.095764c28.613586 -17.732056 41.308044 -1.0046997 59.2417 -13.296631c17.933655 -12.291931 27.807251 -66.902405 48.36017 -60.455017c20.552917 6.4473877 68.50928 74.95856 74.957275 99.13928c6.448059 24.180725 -41.105164 28.213013 -36.269165 45.94507c4.8360596 17.732056 67.70361 52.38733 65.28528 60.447327c-2.418335 8.060059 -73.14563 -23.976562 -79.79523 -12.087158c-6.649597 11.889404 43.72638 64.28119 39.897644 83.423706c-3.8287964 19.142456 -64.28125 7.050171 -62.87018 31.431213c1.4110718 24.381042 79.79907 104.37659 71.33655 114.85492c-8.462585 10.478394 -102.364624 -55.61194 -122.11182 -51.98474c-19.747253 3.6271362 18.338684 74.35254 3.628418 73.7478c-14.710266 -0.6047363 -80.40448 -59.845764 -91.890076 -77.37628c-11.485596 -17.530457 26.159424 -19.3031 22.97638 -27.80664c-3.1830444 -8.503479 -31.999512 -20.796692 -42.074707 -23.214417c-10.075195 -2.4176636 -16.320984 -3.019226 -18.376465 8.708313c-2.055481 11.727539 16.92511 60.04547 6.043579 61.6568c-10.881531 1.6113892 -52.592773 -34.45813 -71.3327 -51.988586c-18.73999 -17.530518 -44.532715 -25.186096 -41.107117 -53.194275z" fill-rule="evenodd"/><path fill="#346dc9" d="m404.62787 680.1011c-9.522644 8.645447 -23.626038 44.52881 -22.669952 56.078125c0.9560852 11.549316 18.88379 21.863281 28.406464 13.217834c9.522644 -8.645447 29.685638 -53.541138 28.729553 -65.090454c-0.9560852 -11.549316 -24.94339 -12.850952 -34.466064 -4.2055054z" fill-rule="evenodd"/><path fill="#346dc9" d="m679.98285 405.36356c8.431946 -9.71286 43.994324 -24.611023 55.56256 -23.911896c11.568176 0.6991272 22.278503 18.39386 13.846558 28.10672c-8.431946 9.712891 -52.870117 30.86972 -64.438354 30.170593c-11.568176 -0.6991272 -13.40271 -24.652527 -4.970764 -34.365417z" fill-rule="evenodd"/><path fill="#1155cc" d="m319.43127 526.5582c12.212738 18.701172 68.31967 85.491394 87.02084 103.047424c18.701172 17.556091 37.398865 20.990234 25.186127 2.2890625c-12.2127075 -18.701172 -79.76129 -96.93994 -98.46246 -114.49603c-18.701172 -17.55606 -25.957214 -9.541595 -13.744507 9.159546z" fill-rule="evenodd"/><path fill="#1155cc" d="m516.86536 329.12418c18.701172 12.2127075 85.49133 68.31967 103.047424 87.02084c17.556091 18.701141 20.990173 37.398865 2.2890015 25.186127c-18.70111 -12.2127075 -96.93988 -79.76129 -114.49597 -98.46246c-17.556091 -18.701172 -9.541626 -25.957245 9.159546 -13.744507z" fill-rule="evenodd"/><path fill="#ff9900" fill-opacity="0.2975" d="m281.40118 541.1958c-3.4346924 -17.555481 -1.1445312 -41.217926 3.4352417 -58.392517c4.579773 -17.17456 21.562744 -50.95175 24.043365 -44.654907c2.4806519 6.296814 -8.587006 57.437866 -9.159546 82.43585c-0.5725403 24.997986 8.777466 64.11682 5.7242737 67.55206c-3.0531616 3.4352417 -20.608673 -29.38501 -24.043335 -46.94049z" fill-rule="evenodd"/><path fill="#ff9900" fill-opacity="0.2975" d="m525.1178 297.4792c-17.555511 -3.4346924 -41.217957 -1.1445007 -58.392517 3.4352722c-17.174591 4.579773 -50.95175 21.562714 -44.654938 24.043365c6.296814 2.4806213 57.437897 -8.587006 82.43588 -9.159546c24.997986 -0.5725403 64.11676 8.777466 67.55206 5.7242737c3.4352417 -3.0531921 -29.38501 -20.608673 -46.94049 -24.043365z" fill-rule="evenodd"/><path fill="#434343" d="m454.28577 677.4448c2.2901917 -33.20404 46.37198 -86.82745 81.29309 -124.80176c34.921143 -37.974304 94.07605 -96.74716 128.23358 -103.04401c34.15753 -6.296814 82.24542 32.25061 76.71161 65.26306c-5.5338135 33.01245 -73.4668 93.31073 -109.91449 132.81158c-36.447693 39.500916 -79.38446 99.23187 -108.77173 104.193665c-29.387299 4.961853 -69.842224 -41.218506 -67.55206 -74.42255z" fill-rule="evenodd"/><path fill="#434343" d="m725.64276 946.51025c13.549438 -22.326843 87.015076 -72.13135 121.36316 -107.62488c34.348022 -35.49359 64.4975 -94.26874 84.72528 -105.33649c20.227844 -11.067749 45.048523 11.667969 36.641663 38.929993c-8.406921 27.262024 -53.305664 91.24762 -87.082886 124.64215c-33.777283 33.394592 -89.639404 67.49371 -115.58063 75.72528c-25.941223 8.231506 -53.615967 -4.0092163 -40.06659 -26.33606z" fill-rule="evenodd"/><path fill="#f3f3f3" fill-opacity="0.6203" d="m395.35376 494.40836c-1.9044495 -15.445557 -2.115631 -70.24478 0 -81.24661c2.115631 -11.001831 10.789368 -0.2098999 12.693817 15.235657c1.9044495 15.445557 0.8485718 66.43588 -1.2670898 77.43771c-2.115631 11.001801 -9.522278 4.0188293 -11.426727 -11.426758z" fill-rule="evenodd"/><path fill="#f3f3f3" fill-opacity="0.6203" d="m428.53394 461.22818c-1.9044495 -15.445557 -2.115631 -70.24478 0 -81.24661c2.115631 -11.001831 10.789368 -0.2098999 12.693817 15.235657c1.90448 15.445557 0.8485718 66.43588 -1.2670593 77.43771c-2.1156616 11.001831 -9.522308 4.018799 -11.426758 -11.426758z" fill-rule="evenodd"/><path fill="#434343" d="m207.7345 350.50912l0 0c1.4611969 -1.8236084 4.1243286 -2.1177673 5.948288 -0.65701294l73.74132 59.05664c0.8759155 0.70147705 1.4371643 1.7221069 1.5603638 2.8373413c0.123168945 1.1152344 -0.20181274 2.2337646 -0.9035034 3.1094666l-10.582581 13.207214c-1.4611816 1.8236084 -4.1243286 2.1177673 -5.9482727 0.65701294l-73.74135 -59.05667c-1.8239594 -1.4607239 -2.1180267 -4.1231995 -0.6568451 -5.9467773z" fill-rule="evenodd"/><path fill="#434343" d="m504.76263 183.73595l0 0c2.2932434 0.44647217 3.7912598 2.6676483 3.3458557 4.9611053l-18.009125 92.73398c-0.2138977 1.1013794 -0.85650635 2.0724487 -1.786438 2.6996155c-0.92996216 0.62719727 -2.0710754 0.8590698 -3.1723328 0.64468384l-16.608765 -3.2335815c-2.293274 -0.44647217 -3.7912598 -2.667633 -3.3458557 -4.96109l18.009125 -92.73399c0.44540405 -2.2934723 2.6655273 -3.7907562 4.9587708 -3.344284z" fill-rule="evenodd"/><path fill="#434343" d="m94.92748 224.18843l0 0c0 -2.3367462 1.89431 -4.2316437 4.231056 -4.2323456l94.467026 -0.028915405c1.1221466 -3.3569336E-4 2.1983337 0.44509888 2.991806 1.238327c0.7934723 0.7932434 1.2392426 1.8692932 1.2392426 2.9914398l0 16.923706c0 2.3367462 -1.8943024 4.2316437 -4.2310486 4.232361l-94.467026 0.028900146c-2.3367462 7.171631E-4 -4.231056 -1.8930054 -4.231056 -4.2297516z" fill-rule="evenodd"/></g></svg>